 <svg width="109" height="19" viewBox="0 0 109 19" fill="none" xmlns="http://www.w3.org/2000/svg">
    <g clipPath="url(#clip0_1_378)">
        <path d="M10.75 0C8.41 0 6.86 0.79 5.88 1.96V0.36H0V18.26H5.89V8.9C5.89 6.34 7.02 5.43 8.92 5.43C10.95 5.43 11.9 6.64 11.9 9V18.26H17.77V7.89C17.77 2.42 14.57 0 10.75 0Z" fill="white"/>
        <path d="M32.81 0.36V1.73C31.65 0.63 30.06 0 27.95 0C23.09 0 19.01 4.08 19.01 9.28C19.01 14.48 23.09 18.6 27.95 18.6C30.06 18.6 31.65 17.96 32.81 16.82V18.25H38.7V0.36H32.81ZM28.88 13.3C26.68 13.3 24.9 11.52 24.9 9.32C24.9 7.12 26.68 5.34 28.88 5.34C31.03 5.34 32.78 7.07 32.81 9.22C32.81 9.24 32.81 9.27 32.81 9.29C32.85 11.45 31.14 13.24 28.98 13.29H28.88V13.3Z" fill="white"/>
        <path d="M49.73 18.67C53.17 18.67 55.99 17.12 57.73 14.63L53.65 11.24C52.85 12.57 51.4 13.36 49.85 13.31C47.68 13.35 45.89 11.62 45.85 9.46V9.32C45.81 7.15 47.54 5.36 49.7 5.32H49.84C51.36 5.3 52.78 6.05 53.61 7.32L57.69 3.96C55.91 1.51 53.16 0 49.72 0C44.13 0 39.87 4.04 39.87 9.32C39.87 14.6 44.13 18.67 49.72 18.67H49.73Z" fill="white"/>
        <path d="M68.75 0C63.23 0 59.49 4.25 59.49 9.24C59.49 14.23 62.98 18.6 69.37 18.6C72.86 18.6 75.34 17.14 77.04 15.07L73.58 12.18C72.68 13.31 71.29 13.99 69.49 13.99C67.08 13.99 65.56 12.82 65.05 10.87H77.99C78.03 10.38 78.06 9.67 78.06 9.29C78.06 3.93 74.49 0 68.74 0L68.75 0ZM65.11 7.4C65.63 5.47 67.04 4.47 68.9 4.47C71.04 4.47 72.28 5.54 72.66 7.4H65.11Z" fill="white"/>
        <path d="M77.5699 0.359985L83.4699 18.2H89.8899L92.9599 7.28999L96.0899 18.2H102.48L108.39 0.359985H102.42L99.3099 11.67L96.1699 0.359985H89.8199L86.6999 11.67L83.5499 0.359985H77.5799H77.5699Z" fill="white"/>
    </g>
    <defs>
        <clipPath id="clip0_1_378">
            <rect width="108.39" height="18.67" fill="white"/>
        </clipPath>
    </defs>
</svg>